<svg width="30" height="30" viewBox="0 0 30 30" fill="none" xmlns="http://www.w3.org/2000/svg">
<path fill-rule="evenodd" clip-rule="evenodd" d="M13.7371 6.28401C13.2919 5.81982 12.5123 5.99974 12.3155 6.61212C12.1532 7.11707 11.573 7.35145 11.1056 7.10087C10.5387 6.79698 9.8528 7.20901 9.85489 7.85223C9.8566 8.3826 9.3772 8.78481 8.85519 8.69095C8.22213 8.57712 7.69718 9.18092 7.89792 9.79201C8.06345 10.2959 7.7318 10.8266 7.20634 10.8986C6.56908 10.986 6.25641 11.7224 6.63616 12.2416C6.9493 12.6697 6.79787 13.2768 6.32038 13.5077C5.74132 13.7877 5.67153 14.5848 6.19312 14.9612C6.62321 15.2715 6.66682 15.8958 6.28406 16.2629C5.81986 16.7082 5.99979 17.4878 6.61216 17.6846C7.11711 17.8468 7.35149 18.4271 7.10091 18.8945C6.79702 19.4614 7.20906 20.1473 7.85227 20.1452C8.38264 20.1435 8.78485 20.6229 8.69099 21.1449C8.57716 21.7779 9.18096 22.3029 9.79205 22.1021C10.2959 21.9366 10.8266 22.2683 10.8986 22.7937C10.986 23.431 11.7225 23.7437 12.2416 23.3639C12.6697 23.0508 13.2769 23.2022 13.5078 23.6797C13.7878 24.2588 14.5848 24.3285 14.9612 23.8069C15.2716 23.3769 15.8958 23.3332 16.263 23.716C16.7082 24.1802 17.4878 24.0003 17.6846 23.3879C17.8469 22.883 18.4271 22.6486 18.8946 22.8992C19.4615 23.203 20.1473 22.791 20.1452 22.1478C20.1435 21.6174 20.6229 21.2152 21.1449 21.3091C21.778 21.4229 22.3029 20.8191 22.1022 20.208C21.9367 19.7041 22.2683 19.1735 22.7938 19.1014C23.431 19.0141 23.7437 18.2776 23.364 17.7584C23.0508 17.3304 23.2022 16.7232 23.6797 16.4923C24.2588 16.2123 24.3286 15.4152 23.807 15.0388C23.3769 14.7285 23.3333 14.1042 23.7161 13.7371C24.1803 13.2918 24.0003 12.5122 23.388 12.3155C22.883 12.1532 22.6486 11.573 22.8992 11.1055C23.2031 10.5386 22.7911 9.85276 22.1478 9.85484C21.6175 9.85656 21.2153 9.37716 21.3091 8.85515C21.423 8.22209 20.8192 7.69713 20.2081 7.89788C19.7042 8.06341 19.1735 7.73176 19.1015 7.20629C19.0141 6.56904 18.2776 6.25636 17.7585 6.63612C17.3304 6.94925 16.7232 6.79782 16.4923 6.32034C16.2123 5.74127 15.4153 5.67148 15.0389 6.19308C14.7285 6.62317 14.1043 6.66678 13.7371 6.28401ZM14.2287 18.0845L19.1754 12.8377L17.7202 11.4657L13.4594 15.9849L11.5636 14.1976L10.1916 15.6528L12.8151 18.1262L13.5427 18.8122L14.2287 18.0845Z" fill="black"/>
</svg>
