<svg width="34" height="34" viewBox="0 0 34 34" fill="none" xmlns="http://www.w3.org/2000/svg">
<path fill-rule="evenodd" clip-rule="evenodd" d="M30.2 17C30.2 24.2902 24.2901 30.2 17 30.2C9.70983 30.2 3.79999 24.2902 3.79999 17C3.79999 9.70989 9.70983 3.80005 17 3.80005C24.2901 3.80005 30.2 9.70989 30.2 17ZM28.55 17C28.55 23.3789 23.3789 28.55 17 28.55C10.6211 28.55 5.45 23.3789 5.45 17C5.45 10.6211 10.6211 5.45 17 5.45C23.3789 5.45 28.55 10.6211 28.55 17ZM26.9 17C26.9 22.4676 22.4676 26.9 17 26.9C11.5324 26.9 7.1 22.4676 7.1 17C7.1 11.5324 11.5324 7.1 17 7.1C22.4676 7.1 26.9 11.5324 26.9 17ZM16.5 17V12.05H17.5V16.5H20.3V17.5H17H16.5V17Z" fill="black"/>
</svg>
