<svg width="24" height="31" viewBox="0 0 24 31" fill="none" xmlns="http://www.w3.org/2000/svg">
<path fill-rule="evenodd" clip-rule="evenodd" d="M11.9999 20.75C11.7719 20.75 11.5449 20.6537 11.3599 20.46L5.35991 14.21C4.93591 13.7687 4.87791 12.98 5.23191 12.45C5.58491 11.92 6.21491 11.8487 6.63991 12.29L12.0109 17.885L17.3729 12.4912C17.8029 12.0587 18.4329 12.1437 18.7789 12.6812C19.1249 13.2187 19.0569 14.005 18.6269 14.4387L12.6269 20.4737C12.4439 20.6575 12.2219 20.75 11.9999 20.75Z" fill="#282B31"/>
<mask id="mask0" mask-type="alpha" maskUnits="userSpaceOnUse" x="5" y="12" width="14" height="9">
<path fill-rule="evenodd" clip-rule="evenodd" d="M11.9999 20.75C11.7719 20.75 11.5449 20.6537 11.3599 20.46L5.35991 14.21C4.93591 13.7687 4.87791 12.98 5.23191 12.45C5.58491 11.92 6.21491 11.8487 6.63991 12.29L12.0109 17.885L17.3729 12.4912C17.8029 12.0587 18.4329 12.1437 18.7789 12.6812C19.1249 13.2187 19.0569 14.005 18.6269 14.4387L12.6269 20.4737C12.4439 20.6575 12.2219 20.75 11.9999 20.75Z" fill="white"/>
</mask>
<g mask="url(#mask0)">
<rect y="0.75" width="24" height="30" fill="#282B31"/>
</g>
</svg>
