<svg width="53" height="53" viewBox="0 0 53 53" fill="none" xmlns="http://www.w3.org/2000/svg">
<circle cx="26.5" cy="26.5" r="26.5" fill="url(#paint0_linear)"/>
<path d="M27.8307 13.04C24.1507 13.04 21.2547 14.272 19.1427 16.736C17.0307 19.2 15.9747 22.576 15.9747 26.864C15.9747 31.12 16.9507 34.496 18.9027 36.992C20.8867 39.456 23.8467 40.688 27.7827 40.688C29.2867 40.688 30.7107 40.56 32.0547 40.304C33.3987 40.048 34.7107 39.728 35.9907 39.344V43.088C34.7107 43.568 33.3827 43.92 32.0067 44.144C30.6627 44.368 29.0467 44.48 27.1587 44.48C23.6707 44.48 20.7587 43.76 18.4227 42.32C16.0867 40.88 14.3267 38.832 13.1427 36.176C11.9907 33.52 11.4147 30.4 11.4147 26.816C11.4147 23.36 12.0387 20.32 13.2867 17.696C14.5667 15.04 16.4387 12.976 18.9027 11.504C21.3667 10 24.3587 9.248 27.8787 9.248C31.4947 9.248 34.6467 9.92 37.3347 11.264L35.6067 14.912C34.5507 14.432 33.3667 14 32.0547 13.616C30.7747 13.232 29.3667 13.04 27.8307 13.04Z" fill="#467386"/>
<mask id="mask0" mask-type="alpha" maskUnits="userSpaceOnUse" x="11" y="9" width="27" height="36">
<path d="M27.6799 13.04C23.9999 13.04 21.1039 14.272 18.9919 16.736C16.8799 19.2 15.8239 22.576 15.8239 26.864C15.8239 31.12 16.7999 34.496 18.7519 36.992C20.7359 39.456 23.6959 40.688 27.6319 40.688C29.1359 40.688 30.5599 40.56 31.9039 40.304C33.2479 40.048 34.5599 39.728 35.8399 39.344V43.088C34.5599 43.568 33.2319 43.92 31.8559 44.144C30.5119 44.368 28.8959 44.48 27.0079 44.48C23.5199 44.48 20.6079 43.76 18.2719 42.32C15.9359 40.88 14.1759 38.832 12.9919 36.176C11.8399 33.52 11.2639 30.4 11.2639 26.816C11.2639 23.36 11.8879 20.32 13.1359 17.696C14.4159 15.04 16.2879 12.976 18.7519 11.504C21.2159 10 24.2079 9.248 27.7279 9.248C31.3439 9.248 34.4959 9.92 37.1839 11.264L35.4559 14.912C34.3999 14.432 33.2159 14 31.9039 13.616C30.6239 13.232 29.2159 13.04 27.6799 13.04Z" fill="black"/>
</mask>
<g mask="url(#mask0)">
<path d="M30.2569 8.20107L10.5938 11.748C12.6725 22.3426 18.1238 43.5343 23.2998 43.5439C29.7699 43.556 30.9034 42.2744 20.9964 28.5629C13.0708 17.5936 23.8677 10.4178 30.2569 8.20107Z" fill="url(#paint1_linear)"/>
</g>
<defs>
<linearGradient id="paint0_linear" x1="-22.186" y1="53" x2="65.9419" y2="53" gradientUnits="userSpaceOnUse">
<stop stop-color="#EDA02B" stop-opacity="0.9"/>
<stop offset="1" stop-color="#DF4141" stop-opacity="0.9"/>
</linearGradient>
<linearGradient id="paint1_linear" x1="33.4924" y1="11.0628" x2="12.5079" y2="34.7882" gradientUnits="userSpaceOnUse">
<stop offset="0.569679" stop-color="#E02626"/>
<stop offset="0.987364" stop-color="#40E026" stop-opacity="0"/>
</linearGradient>
</defs>
</svg>
