<svg width="268" height="162" viewBox="0 0 268 162" fill="none" xmlns="http://www.w3.org/2000/svg">
<path d="M154.308 60.9073C159.201 60.9073 163.167 56.944 163.167 52.055C163.167 47.166 159.201 43.2026 154.308 43.2026C149.415 43.2026 145.449 47.166 145.449 52.055C145.449 56.944 149.415 60.9073 154.308 60.9073Z" fill="#2F2E41"/>
<path d="M156.776 43.4463C158.309 43.4465 159.816 43.8442 161.15 44.6006C162.483 45.357 163.597 46.4462 164.383 47.7616C165.169 49.077 165.6 50.5738 165.633 52.1054C165.667 53.637 165.302 55.1512 164.575 56.4999C165.343 55.5396 165.903 54.43 166.218 53.2418C166.533 52.0536 166.597 50.8128 166.406 49.5984C166.214 48.3841 165.772 47.2229 165.107 46.1889C164.442 45.1548 163.568 44.2706 162.542 43.5925C161.516 42.9143 160.36 42.4573 159.147 42.2504C157.935 42.0434 156.692 42.0912 155.499 42.3906C154.306 42.6901 153.188 43.2346 152.217 43.9895C151.246 44.7443 150.443 45.6931 149.86 46.7751C150.688 45.7362 151.74 44.8974 152.937 44.321C154.135 43.7447 155.447 43.4457 156.776 43.4463Z" fill="#2F2E41"/>
<path d="M137.753 52.0362C152.126 52.0362 163.777 40.394 163.777 26.0325C163.777 11.671 152.126 0.028717 137.753 0.028717C123.38 0.028717 111.729 11.671 111.729 26.0325C111.729 40.394 123.38 52.0362 137.753 52.0362Z" fill="#2F2E41"/>
<path d="M117.328 9.89837C121.813 4.85926 128.081 1.75809 134.81 1.24938C141.539 0.740671 148.203 2.86422 153.395 7.17184C153.182 6.9697 152.971 6.76593 152.75 6.56951C147.591 1.98924 140.823 -0.356129 133.934 0.0492192C127.045 0.454567 120.599 3.57744 116.014 8.73102C111.429 13.8846 109.08 20.6469 109.485 27.5306C109.889 34.4144 113.012 40.8559 118.169 45.4386C118.39 45.635 118.617 45.8201 118.843 46.0076C113.954 41.36 111.063 34.9961 110.78 28.259C110.497 21.5218 112.845 14.9385 117.328 9.89837Z" fill="#2F2E41"/>
<path d="M137.533 51.8158C146.79 51.8158 154.294 44.3174 154.294 35.0677C154.294 25.8179 146.79 18.3195 137.533 18.3195C128.276 18.3195 120.771 25.8179 120.771 35.0677C120.771 44.3174 128.276 51.8158 137.533 51.8158Z" fill="#FFB8B8"/>
<path d="M125.623 40.3566C125.623 40.3566 127.829 60.6307 124.3 62.8344C120.771 65.0381 144.59 68.1233 144.59 68.1233C144.59 68.1233 141.061 46.0862 149.883 40.3566H125.623Z" fill="#FFB8B8"/>
<path d="M146.795 59.3084C146.795 59.3084 153.363 56.2438 143.904 57.3354C134.445 58.427 126.284 54.2399 126.284 54.2399C126.284 54.2399 123.418 51.3751 122.977 54.4603C122.536 57.5455 124.3 63.2751 114.596 64.1566C104.892 65.0381 96.0705 62.3936 92.5418 69.0047C89.0131 75.6159 90.7774 104.264 90.7774 104.264C90.7774 104.264 97.3937 128.064 102.687 131.59C107.98 135.116 154.294 130.268 154.294 130.268L167.526 106.468V78.7011C167.526 78.7011 165.762 69.0048 153.412 71.6492C153.412 71.6492 145.472 69.8862 145.913 65.9196C146.354 61.9529 146.795 59.3084 146.795 59.3084Z" fill="#BAE7ED" fill-opacity="0.96"/>
<path d="M104.437 148.433C104.71 147.246 104.892 146.575 104.892 146.575L104.751 145.609L103.298 135.749L102.687 131.59C107.979 129.386 109.303 119.248 109.303 119.248L109.503 119.129L110.406 118.589V118.587L113.648 116.643L113.714 116.605L115.023 117.475L117.684 119.248C126.992 126.088 136.471 125.966 142.32 124.889C145.896 124.23 148.118 123.215 148.118 123.215L154.535 121.077L154.734 121.012L154.931 121.041L158.694 121.61L158.763 121.622L159.074 121.668L158.203 127.688L156.939 136.437C160.277 138.203 163.244 141.52 165.839 145.609C166.413 146.514 166.97 147.455 167.509 148.433C168.21 149.698 168.879 151.014 169.517 152.361C169.595 152.522 169.67 152.685 169.746 152.847C169.991 153.375 170.235 153.908 170.471 154.443H103.269C103.356 153.905 103.444 153.392 103.529 152.899C103.534 152.882 103.537 152.865 103.539 152.847C103.571 152.682 103.6 152.522 103.627 152.361C103.924 150.756 104.211 149.416 104.437 148.433Z" fill="#2F2E41"/>
<path d="M101.805 63.7159C101.805 63.7159 106.657 72.5307 104.892 83.5492C103.128 94.5678 110.185 121.894 110.185 121.894L115.478 120.572C115.478 120.572 111.95 97.653 112.832 92.3641C113.714 87.0752 113.714 66.3603 109.303 63.7159C104.892 61.0714 101.805 63.7159 101.805 63.7159Z" fill="#2F2E41"/>
<path d="M153.101 72.8762L154.956 121.673L158.484 123.877C158.484 123.877 163.557 70.327 160.91 70.327H155.525C155.196 70.327 154.87 70.3939 154.568 70.5237C154.265 70.6534 153.992 70.8433 153.766 71.0818C153.539 71.3202 153.363 71.6023 153.249 71.9108C153.135 72.2193 153.085 72.5478 153.101 72.8762Z" fill="#2F2E41"/>
<path d="M112.611 120.792C113.829 120.792 114.817 119.805 114.817 118.588C114.817 117.371 113.829 116.384 112.611 116.384C111.393 116.384 110.406 117.371 110.406 118.588C110.406 119.805 111.393 120.792 112.611 120.792Z" fill="#D55E5E" fill-opacity="0.8"/>
<path d="M156.72 122.996C157.938 122.996 158.925 122.009 158.925 120.792C158.925 119.575 157.938 118.588 156.72 118.588C155.502 118.588 154.514 119.575 154.514 120.792C154.514 122.009 155.502 122.996 156.72 122.996Z" fill="#D55E5E" fill-opacity="0.8"/>
<path d="M123.197 14.1323V30.8805H127.079L132.019 25.5916L131.357 30.8805H148.516L147.457 25.5916L149.574 30.8805H152.309V14.1323H123.197Z" fill="#2F2E41"/>
<path d="M120.551 33.9658C121.282 33.9658 121.874 32.8805 121.874 31.5417C121.874 30.203 121.282 29.1177 120.551 29.1177C119.82 29.1177 119.228 30.203 119.228 31.5417C119.228 32.8805 119.82 33.9658 120.551 33.9658Z" fill="#FFB8B8"/>
<path d="M154.514 33.9658C155.245 33.9658 155.838 32.8805 155.838 31.5417C155.838 30.203 155.245 29.1177 154.514 29.1177C153.784 29.1177 153.191 30.203 153.191 31.5417C153.191 32.8805 153.784 33.9658 154.514 33.9658Z" fill="#FFB8B8"/>
<path d="M163.557 120.572C163.557 120.572 143.487 116.825 142.164 123.436C140.841 130.047 164.439 127.183 164.439 127.183L163.557 120.572Z" fill="#FFB8B8"/>
<path d="M163.116 75.1751C163.116 75.1751 211.194 113.52 202.372 122.775C193.551 132.031 160.028 129.386 160.028 129.386L162.233 118.368L181.641 116.164L171.937 106.468L163.116 107.349V75.1751Z" fill="#BAE7ED" fill-opacity="0.96"/>
<path d="M92.1007 139.083L98.2759 143.931C98.2759 143.931 102.687 157.594 109.303 153.627C115.919 149.66 103.128 135.557 103.128 135.557L95.6294 132.912L92.1007 139.083Z" fill="#FFB8B8"/>
<path d="M98.2759 68.1233L92.1173 69.9752C92.1173 69.9752 49.3153 101.62 47.5509 110.435C45.7866 119.249 55.9316 124.097 55.9316 124.097L94.3061 142.168L98.2759 131.59L80.1913 122.335C80.1913 122.335 81.5146 119.69 76.2216 119.249C70.9285 118.809 70.0463 113.079 70.0463 113.079C70.0463 113.079 80.6324 96.7715 86.3665 100.297C92.1007 103.823 93.865 106.468 93.865 106.468L98.2759 68.1233Z" fill="#BAE7ED" fill-opacity="0.96"/>
<path d="M186.115 149.943V151.42C186.116 151.825 186.041 152.227 185.894 152.604C185.828 152.773 185.749 152.935 185.658 153.091C185.367 153.577 184.956 153.98 184.463 154.26C183.97 154.54 183.413 154.686 182.846 154.686H74.1491C73.5823 154.686 73.0252 154.54 72.5323 154.26C72.0394 153.98 71.6278 153.577 71.3377 153.091C71.2459 152.935 71.1669 152.773 71.1016 152.604C70.9544 152.227 70.8792 151.825 70.8801 151.42V149.943C70.8799 149.514 70.9644 149.09 71.1287 148.693C71.2929 148.297 71.5337 147.937 71.8373 147.633C72.1409 147.33 72.5013 147.089 72.898 146.925C73.2946 146.761 73.7198 146.677 74.1491 146.677H80.4146V145.989C80.4146 145.971 80.4181 145.953 80.4249 145.936C80.4318 145.92 80.4418 145.905 80.4545 145.892C80.4671 145.879 80.4822 145.869 80.4987 145.863C80.5153 145.856 80.533 145.852 80.5509 145.852H83.82C83.8379 145.852 83.8556 145.856 83.8722 145.863C83.8888 145.869 83.9038 145.879 83.9165 145.892C83.9291 145.905 83.9392 145.92 83.946 145.936C83.9528 145.953 83.9563 145.971 83.9563 145.989V146.677H85.9986V145.989C85.9985 145.971 86.002 145.953 86.0089 145.936C86.0157 145.92 86.0258 145.905 86.0384 145.892C86.0511 145.879 86.0661 145.869 86.0827 145.863C86.0992 145.856 86.117 145.852 86.1349 145.852H89.4039C89.4219 145.852 89.4396 145.856 89.4561 145.863C89.4727 145.869 89.4877 145.879 89.5004 145.892C89.5131 145.905 89.5231 145.92 89.5299 145.936C89.5368 145.953 89.5403 145.971 89.5403 145.989V146.677H91.5849V145.989C91.5849 145.971 91.5884 145.953 91.5953 145.936C91.6021 145.92 91.6121 145.905 91.6248 145.892C91.6375 145.879 91.6525 145.869 91.6691 145.863C91.6856 145.856 91.7033 145.852 91.7213 145.852H94.9903C95.0082 145.852 95.026 145.856 95.0425 145.863C95.0591 145.869 95.0741 145.879 95.0868 145.892C95.0994 145.905 95.1095 145.92 95.1163 145.936C95.1232 145.953 95.1267 145.971 95.1266 145.989V146.677H97.1689V145.989C97.1689 145.971 97.1724 145.953 97.1792 145.936C97.186 145.92 97.1961 145.905 97.2087 145.892C97.2214 145.879 97.2364 145.869 97.253 145.863C97.2695 145.856 97.2873 145.852 97.3052 145.852H100.574C100.592 145.852 100.61 145.856 100.626 145.863C100.643 145.869 100.658 145.879 100.671 145.892C100.683 145.905 100.693 145.92 100.7 145.936C100.707 145.953 100.711 145.971 100.711 145.989V146.677H102.753V145.989C102.753 145.971 102.756 145.953 102.763 145.936C102.77 145.92 102.78 145.905 102.793 145.892C102.805 145.879 102.82 145.869 102.837 145.863C102.853 145.856 102.871 145.852 102.889 145.852H106.158C106.176 145.852 106.194 145.856 106.21 145.863C106.227 145.869 106.242 145.879 106.255 145.892C106.267 145.905 106.277 145.92 106.284 145.936C106.291 145.953 106.295 145.971 106.295 145.989V146.677H108.339V145.989C108.339 145.971 108.343 145.953 108.35 145.936C108.356 145.92 108.366 145.905 108.379 145.892C108.392 145.879 108.407 145.869 108.423 145.863C108.44 145.856 108.458 145.852 108.476 145.852H111.745C111.762 145.852 111.78 145.856 111.797 145.863C111.813 145.869 111.828 145.879 111.841 145.892C111.854 145.905 111.864 145.92 111.871 145.936C111.877 145.953 111.881 145.971 111.881 145.989V146.677H113.923V145.989C113.923 145.971 113.927 145.953 113.933 145.936C113.94 145.92 113.95 145.905 113.963 145.892C113.976 145.879 113.991 145.869 114.007 145.863C114.024 145.856 114.042 145.852 114.059 145.852H139.667C139.685 145.852 139.702 145.856 139.719 145.863C139.735 145.869 139.751 145.879 139.763 145.892C139.776 145.905 139.786 145.92 139.793 145.936C139.8 145.953 139.803 145.971 139.803 145.989V146.677H141.848V145.989C141.848 145.971 141.851 145.953 141.858 145.936C141.865 145.92 141.875 145.905 141.888 145.892C141.9 145.879 141.915 145.869 141.932 145.863C141.948 145.856 141.966 145.852 141.984 145.852H145.253C145.289 145.853 145.324 145.867 145.349 145.893C145.375 145.918 145.389 145.952 145.389 145.989V146.677H147.432V145.989C147.432 145.971 147.435 145.953 147.442 145.936C147.449 145.92 147.459 145.905 147.472 145.892C147.484 145.879 147.499 145.869 147.516 145.863C147.532 145.856 147.55 145.852 147.568 145.852H150.837C150.855 145.852 150.873 145.856 150.889 145.863C150.906 145.869 150.921 145.879 150.933 145.892C150.946 145.905 150.956 145.92 150.963 145.936C150.97 145.953 150.973 145.971 150.973 145.989V146.677H153.016V145.989C153.016 145.971 153.019 145.953 153.026 145.936C153.033 145.92 153.043 145.905 153.055 145.892C153.068 145.879 153.083 145.869 153.1 145.863C153.116 145.856 153.134 145.852 153.152 145.852H156.421C156.439 145.852 156.457 145.856 156.473 145.863C156.49 145.869 156.505 145.879 156.517 145.892C156.53 145.905 156.54 145.92 156.547 145.936C156.554 145.953 156.557 145.971 156.557 145.989V146.677H158.602V145.989C158.602 145.971 158.605 145.953 158.612 145.936C158.619 145.92 158.629 145.905 158.642 145.892C158.654 145.879 158.67 145.869 158.686 145.863C158.703 145.856 158.72 145.852 158.738 145.852H162.007C162.043 145.853 162.077 145.867 162.102 145.893C162.127 145.918 162.141 145.953 162.141 145.989V146.677H164.186V145.989C164.186 145.971 164.189 145.953 164.196 145.936C164.203 145.92 164.213 145.905 164.226 145.892C164.238 145.879 164.253 145.869 164.27 145.863C164.287 145.856 164.304 145.852 164.322 145.852H167.591C167.609 145.852 167.627 145.856 167.643 145.863C167.66 145.869 167.675 145.879 167.688 145.892C167.7 145.905 167.71 145.92 167.717 145.936C167.724 145.953 167.728 145.971 167.728 145.989V146.677H169.77V145.989C169.77 145.971 169.773 145.953 169.78 145.936C169.787 145.92 169.797 145.905 169.81 145.892C169.822 145.879 169.837 145.869 169.854 145.863C169.871 145.856 169.888 145.852 169.906 145.852H173.175C173.193 145.852 173.211 145.856 173.227 145.863C173.244 145.869 173.259 145.879 173.272 145.892C173.284 145.905 173.294 145.92 173.301 145.936C173.308 145.953 173.312 145.971 173.312 145.989V146.677H182.846C183.275 146.677 183.701 146.761 184.097 146.925C184.494 147.089 184.854 147.33 185.158 147.633C185.462 147.937 185.702 148.297 185.867 148.693C186.031 149.09 186.115 149.514 186.115 149.943Z" fill="#EEB55F"/>
<path d="M177.363 87.7668H136.848V86.9324H118.477V87.7668H77.7952C77.0684 87.7668 76.3713 88.0553 75.8574 88.5689C75.3434 89.0824 75.0547 89.7789 75.0547 90.5052V145.939C75.0547 146.665 75.3434 147.362 75.8574 147.875C76.3713 148.389 77.0684 148.677 77.7952 148.677H177.363C178.089 148.677 178.786 148.389 179.3 147.875C179.814 147.362 180.103 146.665 180.103 145.939V90.5052C180.103 90.1456 180.032 89.7895 179.894 89.4573C179.757 89.125 179.555 88.8232 179.3 88.5689C179.046 88.3146 178.744 88.1129 178.411 87.9753C178.079 87.8377 177.722 87.7668 177.363 87.7668Z" fill="#EEB55F"/>
<path d="M127.659 113.201C131.019 113.201 133.744 110.478 133.744 107.12C133.744 103.762 131.019 101.039 127.659 101.039C124.298 101.039 121.573 103.762 121.573 107.12C121.573 110.478 124.298 113.201 127.659 113.201Z" stroke="#BAE7ED" stroke-opacity="0.96" stroke-width="2" stroke-miterlimit="10"/>
<path d="M125.711 115.39C129.072 115.39 131.797 112.667 131.797 109.309C131.797 105.951 129.072 103.228 125.711 103.228C122.35 103.228 119.626 105.951 119.626 109.309C119.626 112.667 122.35 115.39 125.711 115.39Z" fill="#BAE7ED" fill-opacity="0.96"/>
<path d="M52.3391 161.392H6.33369V161.942H52.3391V161.392Z" fill="#EEB55F"/>
<path d="M33.1383 143.677C28.2917 151.583 29.9592 161.418 29.9592 161.418C29.9592 161.418 39.4846 158.434 44.3313 150.528C49.1779 142.621 47.5104 132.787 47.5104 132.787C47.5104 132.787 37.985 135.771 33.1383 143.677Z" fill="#EEB55F"/>
<path d="M29.7614 161.483L29.4858 161.44C29.3862 161.424 19.4673 159.782 13.527 152.68C7.58662 145.578 7.72957 135.533 7.73151 135.432L7.73743 135.153L8.01299 135.197C8.11265 135.213 18.0315 136.855 23.9718 143.957C29.9122 151.059 29.7692 161.104 29.7673 161.205L29.7614 161.483Z" fill="#D55E5E" fill-opacity="0.8"/>
<path d="M30.1527 161.733L29.8865 161.65C29.7902 161.62 20.2179 158.547 15.3795 150.655C10.5411 142.762 12.1512 132.845 12.1678 132.746L12.2144 132.471L12.4806 132.554C12.5769 132.585 22.1492 135.657 26.9876 143.55C31.826 151.443 30.2159 161.359 30.1993 161.459L30.1527 161.733ZM12.6071 133.111C12.3867 134.776 11.5084 143.408 15.7946 150.401C20.0809 157.393 28.1764 160.533 29.76 161.093C29.9804 159.429 30.8587 150.796 26.5726 143.804C22.2862 136.812 14.1907 133.672 12.6071 133.111H12.6071Z" fill="#EEB55F"/>
<path d="M30.2616 135.799C33.2191 135.799 35.6167 133.403 35.6167 130.448C35.6167 127.493 33.2191 125.097 30.2616 125.097C27.304 125.097 24.9064 127.493 24.9064 130.448C24.9064 133.403 27.304 135.799 30.2616 135.799Z" fill="#EEB55F"/>
<path d="M97.3147 62.8137L66.594 31.8748H52.0908V31.3884H66.7972L66.8688 31.4606L97.6608 62.4718L97.3147 62.8137Z" fill="#EEB55F"/>
<path d="M169.468 61.8408L200.189 30.9019H214.692V30.4155H199.985L199.914 30.4877L169.122 61.4988L169.468 61.8408Z" fill="#EEB55F"/>
<path d="M35.5386 16.6219H3.05176e-05V23.6455H35.5386V16.6219Z" fill="#BAE7ED" fill-opacity="0.96"/>
<path d="M35.5386 27.3995H3.05176e-05V34.4232H35.5386V27.3995Z" fill="#BAE7ED" fill-opacity="0.96"/>
<path d="M35.5386 38.1771H3.05176e-05V45.2008H35.5386V38.1771Z" fill="#BAE7ED" fill-opacity="0.96"/>
<path opacity="0.15" d="M14.702 16.6219H1.52588e-05V23.6455H14.702V16.6219Z" fill="black"/>
<path opacity="0.15" d="M4.75963 27.3995H0V34.4231H4.75963V27.3995Z" fill="black"/>
<path opacity="0.15" d="M23.6924 38.1771H3.05176e-05V45.2008H23.6924V38.1771Z" fill="black"/>
<path d="M268 18.1998H232.407V21.3689H268V18.1998Z" fill="#BAE7ED" fill-opacity="0.96"/>
<path d="M226.122 17.7896H219.074V24.8322H226.122V17.7896Z" fill="#D55E5E" fill-opacity="0.8"/>
<path d="M226.122 28.3535H219.074V35.3961H226.122V28.3535Z" fill="#D55E5E" fill-opacity="0.8"/>
<path d="M226.122 38.9174H219.074V45.9601H226.122V38.9174Z" fill="#D55E5E" fill-opacity="0.8"/>
<path d="M228.069 23.3729H220.534V15.8437H228.069V23.3729ZM221.021 22.8864H227.582V16.3302H221.021V22.8864Z" fill="#EEB55F"/>
<path d="M268 28.7637H232.407V31.9329H268V28.7637Z" fill="#BAE7ED" fill-opacity="0.96"/>
<path d="M228.069 33.9368H220.534V26.4077H228.069V33.9368ZM221.021 33.4503H227.582V26.8942H221.021V33.4503Z" fill="#EEB55F"/>
<path d="M268 39.3277H232.407V42.4968H268V39.3277Z" fill="#BAE7ED" fill-opacity="0.96"/>
<path d="M228.069 44.5006H220.534V36.9716H228.069V44.5006ZM221.021 44.0142H227.582V37.4581H221.021V44.0142Z" fill="#EEB55F"/>
<path d="M46.0055 24.0916C48.1564 24.0916 49.9001 22.3493 49.9001 20.2C49.9001 18.0508 48.1564 16.3084 46.0055 16.3084C43.8545 16.3084 42.1108 18.0508 42.1108 20.2C42.1108 22.3493 43.8545 24.0916 46.0055 24.0916Z" fill="#D55E5E" fill-opacity="0.8"/>
<path d="M46.0055 35.7664C48.1564 35.7664 49.9001 34.0241 49.9001 31.8748C49.9001 29.7255 48.1564 27.9832 46.0055 27.9832C43.8545 27.9832 42.1108 29.7255 42.1108 31.8748C42.1108 34.0241 43.8545 35.7664 46.0055 35.7664Z" fill="#D55E5E" fill-opacity="0.8"/>
<path d="M46.0055 46.2251C48.1564 46.2251 49.9001 44.4827 49.9001 42.3335C49.9001 40.1842 48.1564 38.4419 46.0055 38.4419C43.8545 38.4419 42.1108 40.1842 42.1108 42.3335C42.1108 44.4827 43.8545 46.2251 46.0055 46.2251Z" fill="#D55E5E" fill-opacity="0.8"/>
<path d="M44.0581 23.3619C43.2397 23.3619 42.4396 23.1194 41.7591 22.6651C41.0786 22.2108 40.5482 21.565 40.235 20.8094C39.9218 20.0539 39.8399 19.2225 39.9996 18.4205C40.1592 17.6184 40.5533 16.8816 41.1321 16.3034C41.7108 15.7251 42.4481 15.3313 43.2508 15.1718C44.0535 15.0122 44.8855 15.0941 45.6417 15.407C46.3978 15.72 47.0441 16.25 47.4988 16.9299C47.9535 17.6099 48.1962 18.4093 48.1962 19.2271C48.1949 20.3234 47.7586 21.3744 46.9828 22.1495C46.207 22.9247 45.1552 23.3607 44.0581 23.3619ZM44.0581 15.5788C43.336 15.5788 42.63 15.7927 42.0296 16.1936C41.4291 16.5945 40.9612 17.1643 40.6848 17.831C40.4085 18.4976 40.3362 19.2312 40.477 19.9389C40.6179 20.6466 40.9657 21.2967 41.4763 21.8069C41.9869 22.3171 42.6375 22.6646 43.3458 22.8054C44.0541 22.9462 44.7882 22.8739 45.4554 22.5978C46.1225 22.3216 46.6928 21.854 47.094 21.2541C47.4952 20.6541 47.7093 19.9487 47.7093 19.2271C47.7082 18.2599 47.3232 17.3325 46.6387 16.6485C45.9542 15.9646 45.0261 15.5798 44.0581 15.5788Z" fill="#EEB55F"/>
<path d="M44.0581 35.0367C43.2397 35.0367 42.4396 34.7942 41.7591 34.3399C41.0786 33.8855 40.5482 33.2398 40.235 32.4842C39.9218 31.7287 39.8399 30.8973 39.9996 30.0952C40.1592 29.2932 40.5533 28.5564 41.1321 27.9782C41.7108 27.3999 42.4481 27.0061 43.2508 26.8465C44.0535 26.687 44.8855 26.7689 45.6417 27.0818C46.3978 27.3948 47.0441 27.9248 47.4988 28.6047C47.9535 29.2847 48.1962 30.0841 48.1962 30.9019C48.1949 31.9982 47.7586 33.0492 46.9828 33.8243C46.207 34.5995 45.1552 35.0355 44.0581 35.0367ZM44.0581 27.2535C43.336 27.2535 42.63 27.4675 42.0296 27.8684C41.4291 28.2693 40.9612 28.8391 40.6848 29.5057C40.4085 30.1724 40.3362 30.906 40.477 31.6137C40.6179 32.3214 40.9657 32.9715 41.4763 33.4817C41.9869 33.9919 42.6375 34.3394 43.3458 34.4802C44.0541 34.621 44.7882 34.5487 45.4554 34.2726C46.1225 33.9964 46.6928 33.5288 47.094 32.9288C47.4952 32.3289 47.7093 31.6235 47.7093 30.9019C47.7082 29.9346 47.3232 29.0073 46.6387 28.3233C45.9542 27.6394 45.0261 27.2546 44.0581 27.2535Z" fill="#EEB55F"/>
<path d="M44.0581 45.4954C43.2397 45.4954 42.4396 45.2529 41.7591 44.7985C41.0786 44.3442 40.5482 43.6984 40.235 42.9429C39.9218 42.1874 39.8399 41.356 39.9996 40.5539C40.1592 39.7518 40.5533 39.0151 41.1321 38.4368C41.7108 37.8586 42.4481 37.4647 43.2508 37.3052C44.0535 37.1457 44.8855 37.2275 45.6417 37.5405C46.3978 37.8535 47.0441 38.3834 47.4988 39.0634C47.9535 39.7434 48.1962 40.5428 48.1962 41.3606C48.1949 42.4568 47.7586 43.5078 46.9828 44.283C46.207 45.0581 45.1552 45.4942 44.0581 45.4954ZM44.0581 37.7122C43.336 37.7122 42.63 37.9262 42.0296 38.3271C41.4291 38.728 40.9612 39.2977 40.6848 39.9644C40.4085 40.6311 40.3362 41.3646 40.477 42.0723C40.6179 42.78 40.9657 43.4301 41.4763 43.9404C41.9869 44.4506 42.6375 44.7981 43.3458 44.9388C44.0541 45.0796 44.7882 45.0074 45.4554 44.7312C46.1225 44.4551 46.6928 43.9875 47.094 43.3875C47.4952 42.7875 47.7093 42.0822 47.7093 41.3606C47.7082 40.3933 47.3232 39.466 46.6387 38.782C45.9542 38.098 45.0261 37.7133 44.0581 37.7122Z" fill="#EEB55F"/>
</svg>
